HIERARCHY
ROOT Hips
{
	OFFSET 0.00000 0.00000 0.00000
	CHANNELS 6 Xposition Yposition Zposition Zrotation Yrotation Xrotation 
	JOINT LHipJoint
	{
		OFFSET 0 0 0
		CHANNELS 3 Zrotation Yrotation Xrotation
		JOINT LeftHip
		{
			OFFSET 1.33213 -1.58186 0.78596
			CHANNELS 3 Zrotation Yrotation Xrotation
			JOINT LeftKnee
			{
				OFFSET 2.29717 -6.31144 0.00000
				CHANNELS 3 Zrotation Yrotation Xrotation
				JOINT LeftAnkle
				{
					OFFSET 2.38430 -6.55082 0.00000
					CHANNELS 3 Zrotation Yrotation Xrotation
					JOINT LeftToe
					{
						OFFSET 0.11863 -0.32594 1.77568
						CHANNELS 3 Zrotation Yrotation Xrotation
						End Site
						{
							OFFSET 0.00000 -0.00000 0.91633
						}
					}
				}
			}
		}
	}
	JOINT RHipJoint
	{
		OFFSET 0 0 0
		CHANNELS 3 Zrotation Yrotation Xrotation
		JOINT RightHip
		{
			OFFSET -1.41575 -1.58186 0.78596
			CHANNELS 3 Zrotation Yrotation Xrotation
			JOINT RightKnee
			{
				OFFSET -2.42012 -6.64922 0.00000
				CHANNELS 3 Zrotation Yrotation Xrotation
				JOINT RightAnkle
				{
					OFFSET -2.47254 -6.79327 0.00000
					CHANNELS 3 Zrotation Yrotation Xrotation
					JOINT RightToe
					{
						OFFSET -0.15219 -0.41813 1.93430
						CHANNELS 3 Zrotation Yrotation Xrotation
						End Site
						{
							OFFSET -0.00000 -0.00000 0.99984
						}
					}
				}
			}
		}
	}
	JOINT lowerback
	{
		OFFSET 0 0 0
		CHANNELS 3 Zrotation Yrotation Xrotation
		JOINT Chest
		{
			OFFSET -0.04717 2.09389 -0.14516
			CHANNELS 3 Zrotation Yrotation Xrotation
			JOINT Chest2
			{
				OFFSET 0.02825 2.09433 -0.11325
				CHANNELS 3 Zrotation Yrotation Xrotation
				JOINT lowerneck
				{
					OFFSET 0 0 0
					CHANNELS 3 Zrotation Yrotation Xrotation
					JOINT Neck
					{
						OFFSET -0.01210 1.39029 0.12448
						CHANNELS 3 Zrotation Yrotation Xrotation
						JOINT Head
						{
							OFFSET 0.09492 1.38365 0.14559
							CHANNELS 3 Zrotation Yrotation Xrotation
							End Site
							{
								OFFSET 0.03402 1.40343 0.03708
							}
						}
					}
				}
				JOINT LeftCollar
				{
					OFFSET 0 0 0
					CHANNELS 3 Zrotation Yrotation Xrotation
					JOINT LeftShoulder
					{
						OFFSET 2.83352 1.10671 -0.20481
CHANNELS 3 Zrotation Xrotation Yrotation
						JOINT LeftElbow
						{
OFFSET 0 -4.771950 -0.000000
CHANNELS 3 Zrotation Xrotation Yrotation
							JOINT LeftWrist
							{
OFFSET 0 -2.984440 0.000000
CHANNELS 3 Zrotation Xrotation Yrotation
								JOINT lhand
								{
									OFFSET 0 0 0
CHANNELS 3 Zrotation Xrotation Yrotation
									JOINT LFingers
									{
OFFSET 0 -0.992280 0.000000
CHANNELS 3 Zrotation Xrotation Yrotation
										End Site
										{
OFFSET 0 -0.800010 0.000000
										}
									}
								}
								JOINT LThumb
								{
OFFSET 0 0.000000 0.000000
CHANNELS 3 Zrotation Xrotation Yrotation
									End Site
									{
OFFSET 0 -0.812220 0.812220
									}
								}
							}
						}
					}
				}
				JOINT RightCollar
				{
					OFFSET 0 0 0
					CHANNELS 3 Zrotation Yrotation Xrotation
					JOINT RightShoulder
					{
						OFFSET -3.23760 1.11106 0.06723
CHANNELS 3 Zrotation Xrotation Yrotation
						JOINT RightElbow
						{
OFFSET 0 -4.620520 0.000000
CHANNELS 3 Zrotation Xrotation Yrotation
							JOINT RightWrist
							{
OFFSET 0 -2.953320 0.000000
CHANNELS 3 Zrotation Xrotation Yrotation
								JOINT rhand
								{
									OFFSET 0 0 0
CHANNELS 3 Zrotation Xrotation Yrotation
									JOINT RFingers
									{
OFFSET 0 -0.990960 0.000000
CHANNELS 3 Zrotation Xrotation Yrotation
										End Site
										{
OFFSET 0 -0.798930 0.000000
										}
									}
								}
								JOINT RThumb
								{
OFFSET 0 0.000000 0.000000
CHANNELS 3 Zrotation Xrotation Yrotation
									End Site
									{
OFFSET 0 -0.811130 0.811130
									}
								}
							}
						}
					}
				}
			}
		}
	}
}
MOTION
Frames: 10
Frame Time: 0.008333333333333333
-2.357556 8.135517 11.849549 -189.193020 -2.064136 -109.385611 0.000000 0.000000 0.000000 -0.391286 -22.711284 -86.043727 32.198003 15.970536 128.155522 0.075996 -12.244989 18.356365 2.053483 -8.976527 -25.721936 0.000000 0.000000 0.000000 12.576703 14.501377 -26.327440 -10.445042 -17.652571 60.965654 179.610472 8.581858 -11.728857 -4.997819 12.852571 -39.632970 -2.834671 -1.201090 17.787097 -3.007434 -2.921658 5.187180 -0.942607 -1.680416 -4.424030 0.975054 -1.592383 2.765291 13.237093 -1.035914 -30.531505 4.956570 -3.543319 -10.072450 0.000000 0.000000 0.000000 27.023698 -59.130682 -39.074800 55.384059 -54.941145 30.532094 53.834818 26.557212 1.500452 0.000000 0.000000 0.000000 -7.125000 0.000000 0.000000 20.576664 27.198739 9.479868 0.000000 0.000000 0.000000 -16.965149 -60.014005 23.155271 -40.061627 -48.105013 -18.485505 -51.759977 28.537648 -2.218950 0.000000 0.000000 0.000000 7.125000 0.000000 0.000000 -18.877153 26.265508 -9.045342
-2.414150 8.234666 11.660384 -188.065880 -1.384748 -108.677875 0.000000 0.000000 0.000000 -0.789179 -22.052083 -85.021789 31.600800 16.402187 126.016548 -0.374828 -14.166421 14.923580 2.524583 -9.850324 -28.520889 0.000000 0.000000 0.000000 11.640527 14.551305 -28.494351 -10.650369 -17.759383 61.640569 -25.601490 0.140429 -2.829213 -0.880503 -0.451324 1.220888 -3.083342 -1.089546 17.490117 -2.568525 -2.726015 4.808363 -0.381942 -1.554656 -4.636158 0.490320 -1.337777 2.505614 12.987373 -0.862980 -30.448005 4.925345 -3.394272 -9.993485 0.000000 0.000000 0.000000 29.015134 -64.043453 -34.721050 51.177727 -53.436285 27.123640 52.058919 28.560722 -0.298070 0.000000 0.000000 0.000000 -7.125000 0.000000 0.000000 19.855229 30.086296 7.653548 0.000000 0.000000 0.000000 -15.597863 -59.793230 25.758666 -38.858146 -47.376634 -17.594996 -52.874039 28.294424 -2.750213 0.000000 0.000000 0.000000 7.125000 0.000000 0.000000 -19.502784 25.334676 -9.835529
-2.483853 8.334751 11.447840 -186.786444 -0.899863 -109.122568 0.000000 0.000000 0.000000 -1.834684 -21.496340 -82.128839 30.764526 16.956018 123.100327 -0.592173 -14.993663 12.588283 2.456737 -9.757042 -28.194960 0.000000 0.000000 0.000000 11.295707 14.251596 -29.532224 -10.998223 -17.934083 62.775735 162.547422 -3.246332 3.266946 -0.968267 -6.262930 17.549878 -2.973867 -0.925067 18.345932 -2.138407 -2.502083 4.750114 -0.008542 -1.435576 -5.139281 0.011418 -1.149115 2.040631 12.718971 -0.792232 -30.062097 4.863148 -3.253946 -9.755409 0.000000 0.000000 0.000000 32.565394 -68.874722 -28.821522 45.853140 -51.173156 22.903337 49.746980 28.467956 -1.024521 0.000000 0.000000 0.000000 -7.125000 0.000000 0.000000 18.311900 31.210331 6.469329 0.000000 0.000000 0.000000 -14.377744 -59.688954 28.230048 -37.670589 -46.627158 -16.725851 -53.637228 27.075369 -3.573779 0.000000 0.000000 0.000000 7.125000 0.000000 0.000000 -19.776448 23.953269 -10.669339
-2.551823 8.439208 11.225946 -185.617875 -0.539414 -110.074192 0.000000 0.000000 0.000000 -3.258492 -21.077047 -78.452611 29.689709 17.574802 119.487308 -0.799845 -16.151805 10.481468 2.328712 -9.519199 -27.433666 0.000000 0.000000 0.000000 11.241414 13.891954 -30.332719 -11.574533 -18.202866 64.631382 179.884046 -4.596821 6.409431 -1.451893 -7.615769 21.553240 -2.899008 -0.808517 19.757472 -1.622609 -2.394966 4.886435 0.514481 -1.387141 -5.721031 -0.761670 -0.839648 1.667164 12.608438 -0.543634 -29.903923 4.923849 -3.052989 -9.630683 0.000000 0.000000 0.000000 40.095661 -73.149415 -18.991207 40.427875 -48.289293 18.768143 46.653838 27.877015 -1.341194 0.000000 0.000000 0.000000 -7.125000 0.000000 0.000000 15.979309 31.653794 5.409914 0.000000 0.000000 0.000000 -13.590217 -59.987150 30.809627 -36.420142 -45.797156 -15.823860 -54.236823 26.488119 -3.835187 0.000000 0.000000 0.000000 7.125000 0.000000 0.000000 -20.100882 23.452079 -11.117644
-2.600156 8.547835 11.008534 -184.412224 -0.191285 -110.749957 0.000000 0.000000 0.000000 -4.510843 -20.267823 -75.269647 28.559933 18.139452 115.802597 -0.820006 -16.145607 9.675071 2.624456 -10.055611 -29.161546 0.000000 0.000000 0.000000 11.237872 13.909126 -31.865912 -12.438218 -18.566663 67.367917 179.942853 -5.076547 5.146625 -0.991597 -6.286342 17.635071 -3.050707 -0.663205 21.006118 -1.066812 -2.273549 4.927618 1.204689 -1.324291 -6.305494 -1.557598 -0.466313 1.553471 12.520291 -0.178414 -29.970930 5.015260 -2.823476 -9.652591 0.000000 0.000000 0.000000 51.896928 -76.212637 -5.246228 35.816243 -45.361410 15.399705 43.906607 27.873965 -1.829532 0.000000 0.000000 0.000000 -7.125000 0.000000 0.000000 13.911297 32.297435 4.443442 0.000000 0.000000 0.000000 -13.064679 -60.314011 33.454998 -35.001070 -44.809886 -14.815084 -55.247247 26.344893 -3.848351 0.000000 0.000000 0.000000 7.125000 0.000000 0.000000 -20.774020 23.271020 -11.637220
-2.638591 8.644012 10.806007 -182.978523 -0.080558 -111.599656 0.000000 0.000000 0.000000 -5.478050 -18.785290 -71.996292 27.603984 18.552308 112.762232 -0.739659 -15.448145 9.637179 2.661721 -10.125682 -29.385103 0.000000 0.000000 0.000000 11.616082 14.318202 -33.691843 -13.619108 -18.991482 71.035235 -179.932813 -5.769461 1.496556 -0.625381 -5.024232 13.984455 -2.911205 -0.504110 22.462791 -0.513962 -2.090322 5.031563 1.719007 -1.239711 -6.942448 -2.390380 -3.549307 1.308111 14.051709 0.619666 -29.074849 5.088371 0.628533 -9.296876 0.000000 0.000000 0.000000 67.876574 -77.790912 11.895473 32.015866 -42.553821 12.753697 42.339408 27.583208 -2.082089 0.000000 0.000000 0.000000 -7.125000 0.000000 0.000000 12.704637 32.608314 3.940092 0.000000 0.000000 0.000000 -12.115980 -60.540437 36.274767 -33.591245 -43.778318 -13.830000 -56.539179 26.083314 -4.129833 0.000000 0.000000 0.000000 7.125000 0.000000 0.000000 -21.532640 22.584599 -12.496136
-2.667003 8.728938 10.635670 -181.691005 0.210174 -111.357871 0.000000 0.000000 0.000000 -6.107287 -17.265138 -70.410863 26.849093 18.833815 110.408488 -0.682373 -14.880960 9.385935 2.710404 -10.202074 -29.641712 0.000000 0.000000 0.000000 11.338716 15.290750 -37.518946 -15.203502 -19.429301 75.842277 -179.901209 -5.589210 -1.965144 -0.229549 -3.081793 8.506762 -3.004704 -0.377817 22.645262 -0.061328 -1.910217 4.966043 2.221314 -1.142671 -7.097383 -3.061401 -3.306977 0.973595 14.019077 0.885050 -29.021486 5.171993 0.838307 -9.229211 0.000000 0.000000 0.000000 84.200091 -77.741754 28.565047 29.131133 -40.122807 10.850429 41.528337 27.199934 -2.353879 0.000000 0.000000 0.000000 -7.125000 0.000000 0.000000 12.095730 32.947843 3.641807 0.000000 0.000000 0.000000 -10.801490 -60.767659 38.972687 -32.194412 -42.698528 -12.873558 -57.103343 26.507363 -4.317421 0.000000 0.000000 0.000000 7.125000 0.000000 0.000000 -21.833991 22.162320 -12.929275
-2.689579 8.809652 10.474775 -180.466456 0.383684 -110.413699 0.000000 0.000000 0.000000 -6.222087 -16.004297 -69.963271 26.134441 19.071887 108.207347 -0.624518 -14.288268 9.133169 3.139899 -10.916862 -32.001423 0.000000 0.000000 0.000000 10.797419 16.568814 -42.663597 -17.064593 -19.785816 81.385954 -179.910081 -5.811925 -4.521059 -0.039639 0.129320 -0.350443 -3.261219 -0.984183 22.012815 0.343155 -1.554368 4.783818 2.639540 -0.520279 -6.940953 -3.680399 -3.067363 0.772728 13.921474 1.119928 -28.958978 5.228696 1.019222 -9.184319 0.000000 0.000000 0.000000 97.882542 -76.651512 42.193175 26.733333 -37.918167 9.336966 41.172221 26.783978 -2.244728 0.000000 0.000000 0.000000 -7.125000 0.000000 0.000000 11.792587 32.797690 3.590566 0.000000 0.000000 0.000000 -9.347457 -60.936384 41.590247 -31.111631 -41.826466 -12.144549 -57.326642 26.606981 -4.567858 0.000000 0.000000 0.000000 7.125000 0.000000 0.000000 -21.888993 21.693502 -13.223109
-2.708001 8.878774 10.308925 -179.582710 0.577280 -109.459674 0.000000 0.000000 0.000000 -6.436543 -15.231202 -69.369915 25.362448 19.294725 105.858554 -0.583262 -13.801080 8.737196 3.314745 -11.187730 -32.915761 0.000000 0.000000 0.000000 9.944470 17.746494 -48.171771 -19.130821 -19.970950 87.457075 -179.940932 -6.012256 -6.682424 -0.085598 1.884820 -5.187595 -3.413016 -1.019715 21.132312 0.758979 -1.420136 4.674769 3.113213 -0.399312 -6.587617 -4.194979 -2.836227 0.615460 13.734815 1.314119 -28.844200 5.237035 1.168733 -9.128739 0.000000 0.000000 0.000000 105.656059 -75.532331 50.732440 25.389772 -36.598689 8.521684 40.318089 27.210385 -2.219638 0.000000 0.000000 0.000000 -7.125000 0.000000 0.000000 11.101163 32.747029 3.386722 0.000000 0.000000 0.000000 -7.947734 -61.111917 43.782703 -30.018234 -40.906980 -11.422292 -58.181410 26.032900 -5.010553 0.000000 0.000000 0.000000 7.125000 0.000000 0.000000 -22.272233 20.742998 -14.022734
-2.724868 8.926703 10.163480 -178.838826 0.565401 -108.270955 0.000000 0.000000 0.000000 -6.301262 -14.830758 -69.296768 24.645369 19.472960 103.698476 -0.564829 -13.453541 7.892514 3.339387 -11.224539 -33.041655 0.000000 0.000000 0.000000 8.882407 18.927218 -54.478096 -21.349906 -19.941165 93.952266 -179.780661 -8.876451 -7.028065 -0.070068 -0.385120 1.059407 -3.359243 -0.978890 19.886003 1.233063 -1.349450 4.488235 3.550730 -0.398774 -6.129303 -4.756542 -2.692251 0.591655 13.678227 1.411799 -28.799804 5.312861 1.259539 -9.113279 0.000000 0.000000 0.000000 109.799416 -74.863522 56.075495 24.245200 -35.417075 7.850514 39.478666 27.853668 -2.096768 0.000000 0.000000 0.000000 -7.125000 0.000000 0.000000 10.409456 32.573051 3.213484 0.000000 0.000000 0.000000 -6.502151 -61.136653 45.610602 -28.930748 -39.957252 -10.716917 -59.301002 24.899037 -5.712609 0.000000 0.000000 0.000000 7.125000 0.000000 0.000000 -22.709227 19.227322 -15.199909
